<?xml version="1.0" encoding="UTF-8" standalone="no"?>
<!DOCTYPE svg PUBLIC "-//W3C//DTD SVG 1.1//EN" "http://www.w3.org/Graphics/SVG/1.1/DTD/svg11.dtd">
<svg width="100%" height="100%" viewBox="0 0 159 180" version="1.1" xmlns="http://www.w3.org/2000/svg" xmlns:xlink="http://www.w3.org/1999/xlink" xml:space="preserve" xmlns:serif="http://www.serif.com/" style="fill-rule:evenodd;clip-rule:evenodd;stroke-linejoin:round;stroke-miterlimit:2;">
    <g transform="matrix(1,0,0,1,-93.8773,-110.336)">
        <g transform="matrix(0.5,0,0,0.5,86.6025,150)">
            <path d="M179.912,111.617L325.153,195.472C307.246,198.696 279.296,206.63 245.756,226.088C211.378,246.032 191.207,265.146 179.913,278.534L179.912,111.617Z" style="fill:white;"/>
        </g>
        <g transform="matrix(-0.5,-6.12323e-17,6.12323e-17,-0.5,259.808,250)">
            <path d="M179.912,111.617L325.153,195.472C307.246,198.696 279.296,206.63 245.756,226.088C211.378,246.032 191.207,265.146 179.913,278.534L179.912,111.617Z" style="fill:white;"/>
        </g>
        <g transform="matrix(-0.25,-0.433013,0.433013,-0.25,173.205,300)">
            <path d="M179.912,111.617L325.153,195.472C307.248,198.696 279.297,206.63 245.756,226.088C211.378,246.032 191.207,265.146 179.913,278.534L179.912,111.617Z" style="fill:white;"/>
        </g>
        <g transform="matrix(0.25,-0.433013,0.433013,0.25,86.6025,250)">
            <path d="M179.912,111.617L325.153,195.472C307.246,198.696 279.296,206.63 245.756,226.088C211.378,246.032 191.207,265.146 179.913,278.534L179.912,111.617Z" style="fill:white;"/>
        </g>
        <g transform="matrix(0.25,0.433013,-0.433013,0.25,173.205,100)">
            <path d="M179.912,111.617L325.153,195.472C307.248,198.696 279.297,206.63 245.756,226.088C211.378,246.032 191.207,265.146 179.913,278.534L179.912,111.617Z" style="fill:white;"/>
        </g>
        <g transform="matrix(-0.25,0.433013,-0.433013,-0.25,259.808,150)">
            <path d="M179.912,111.617L325.153,195.472C307.246,198.696 279.296,206.63 245.756,226.088C211.378,246.032 191.207,265.146 179.913,278.534L179.912,111.617Z" style="fill:white;"/>
        </g>
    </g>
</svg>
